<?xml version="1.0" encoding="utf-8"?>
<!-- Generator: Adobe Illustrator 28.0.0, SVG Export Plug-In . SVG Version: 6.00 Build 0)  -->
<svg version="1.1" id="Layer_1" xmlns="http://www.w3.org/2000/svg" xmlns:xlink="http://www.w3.org/1999/xlink" x="0px" y="0px"
	 viewBox="0 0 114.5 100" style="enable-background:new 0 0 114.5 100;" xml:space="preserve">
<style type="text/css">
	.st0{fill:#171A21;}
</style>
<path class="st0" d="M57.1,4.2L4.2,57.1c-5.7,5.7-5.7,14.8,0,20.5l18.1,18.1c2.7,2.7,6.4,4.2,10.3,4.2h23.9h2.1h48.6
	c4,0,7.2-3.2,7.2-7.2s-3.2-7.2-7.2-7.2H79.2l29.6-29.6c5.7-5.7,5.7-14.8,0-20.5L77.7,4.2C72-1.4,62.8-1.4,57.1,4.2L57.1,4.2z
	 M58.6,85.5h-2.1H32.6L14.5,67.4l28.3-28.3l31.1,31.1L58.6,85.5z"/>
</svg>
