<?xml version="1.0" encoding="utf-8"?>
<!-- Generator: Adobe Illustrator 28.0.0, SVG Export Plug-In . SVG Version: 6.00 Build 0)  -->
<svg version="1.1" id="Layer_1" xmlns="http://www.w3.org/2000/svg" xmlns:xlink="http://www.w3.org/1999/xlink" x="0px" y="0px"
	 viewBox="0 0 114.5 100" style="enable-background:new 0 0 114.5 100;" xml:space="preserve">
<style type="text/css">
	.st0{fill:#171A21;}
</style>
<path class="st0" d="M39.9,3.5l-1.4,2.8H19.8c-3.5,0-6.2,2.8-6.2,6.2s2.8,6.2,6.2,6.2h75c3.5,0,6.2-2.8,6.2-6.2s-2.8-6.2-6.2-6.2H76
	l-1.4-2.8C73.6,1.3,71.4,0,69,0H45.5C43.1,0,41,1.3,39.9,3.5z M94.8,25h-75l4.1,66.2c0.3,4.9,4.4,8.8,9.4,8.8h48
	c4.9,0,9-3.8,9.4-8.8L94.8,25z"/>
</svg>
